<?xml version="1.0" standalone="no"?><!DOCTYPE svg PUBLIC "-//W3C//DTD SVG 1.1//EN" "http://www.w3.org/Graphics/SVG/1.1/DTD/svg11.dtd"><svg t="1568863880841" class="icon" viewBox="0 0 1024 1024" version="1.1" xmlns="http://www.w3.org/2000/svg" p-id="1159" xmlns:xlink="http://www.w3.org/1999/xlink" width="200" height="200"><defs><style type="text/css"></style></defs><path d="M960.43614815 902.78874075H66.11247408V765.89131852h894.32367407V902.78874075z m-869.20154074-25.12213334h843.95804444V791.13481482H91.23460741v86.53179259z" fill="#1296db" p-id="1160"></path><path d="M189.17451852 817.34921482h648.07822223v25.12213333H189.17451852zM199.97582222 609.69718518h626.59697778v25.12213334H199.97582222zM374.3744 190.38814815h-25.2434963v-44.05475556h-90.17268148V190.38814815h-25.12213333v-69.1768889h140.53831111zM315.87745185 585.66731852c-26.2144 0-47.45291852-21.35988148-47.45291852-47.45291852 0-26.2144 21.35988148-47.45291852 47.45291852-47.45291852 26.2144 0 47.45291852 21.35988148 47.45291852 47.45291852s-21.35988148 47.45291852-47.45291852 47.45291852z m0-69.90506667c-12.25765925 0-22.33078518 10.07312592-22.33078518 22.33078518 0 12.25765925 10.07312592 22.33078518 22.33078518 22.33078519 12.25765925 0 22.33078518-10.07312592 22.33078518-22.33078519 0-12.25765925-10.07312592-22.33078518-22.33078518-22.33078518zM711.15662222 585.66731852c-26.2144 0-47.45291852-21.35988148-47.45291852-47.45291852 0-26.2144 21.35988148-47.45291852 47.45291852-47.45291852s47.45291852 21.35988148 47.45291853 47.45291852-21.23851852 47.45291852-47.45291853 47.45291852z m0-69.90506667c-12.25765925 0-22.33078518 10.07312592-22.33078519 22.33078518 0 12.25765925 10.07312592 22.33078518 22.33078519 22.33078519 12.25765925 0 22.33078518-10.07312592 22.33078519-22.33078519 0-12.25765925-10.07312592-22.33078518-22.33078519-22.33078518zM787.00847408 371.82577778H654.84420741v-134.71288889h132.16426667v134.71288889z m-106.92077038-25.12213333h81.79863705v-84.34725927h-81.79863705v84.34725927z" fill="#1296db" p-id="1161"></path><path d="M85.89463703 782.27531852l-19.90352592-15.53445927 116.14435556-148.79099258V177.7664h655.96681481v434.60077037l122.33386667 153.88823704-19.78216297 15.65582222L812.98014815 621.1053037V203.0098963H207.37896297v423.55674073z" fill="#1296db" p-id="1162"></path><path d="M513.45635555 526.80628148C446.464 526.80628148 391.85066667 472.19294815 391.85066667 405.20059259s54.61333333-121.60568889 121.60568888-121.60568889c67.11371852 0 121.60568889 54.61333333 121.6056889 121.60568889s-54.49197037 121.60568889-121.6056889 121.60568889z m0-218.08924445c-53.15697778 0-96.48355555 43.32657778-96.48355555 96.48355556s43.32657778 96.48355555 96.48355555 96.48355556 96.48355555-43.32657778 96.48355556-96.48355556-43.20521482-96.48355555-96.48355556-96.48355556z" fill="#1296db" p-id="1163"></path><path d="M513.45635555 472.55703703c-37.13706667 0-67.35644445-30.21937778-67.35644444-67.35644444s30.21937778-67.35644445 67.35644444-67.35644444 67.35644445 30.21937778 67.35644445 67.35644444-30.21937778 67.35644445-67.35644445 67.35644444z m0-109.59075555c-23.30168889 0-42.23431111 18.93262222-42.2343111 42.23431111 0 23.30168889 18.93262222 42.23431111 42.2343111 42.23431111 23.30168889 0 42.23431111-18.93262222 42.23431112-42.23431111 0-23.30168889-18.93262222-42.23431111-42.23431112-42.23431111zM423.04094815 178.61594075h25.12213333v150.85416295h-25.12213333zM494.76645925 197.79128889h25.12213334v108.86257778h-25.12213334zM566.61333333 189.29588148h25.12213334v125.8533926H566.61333333z" fill="#1296db" p-id="1164"></path><path d="M423.04094815 482.26607408h25.12213333v143.08693333h-25.12213333zM494.76645925 521.95176297h25.12213334v108.86257778h-25.12213334zM566.61333333 493.55282963h25.12213334v128.7661037H566.61333333z" fill="#1296db" p-id="1165"></path></svg>