<?xml version="1.0" standalone="no"?><!DOCTYPE svg PUBLIC "-//W3C//DTD SVG 1.1//EN" "http://www.w3.org/Graphics/SVG/1.1/DTD/svg11.dtd"><svg t="1571731366992" class="icon" viewBox="0 0 1024 1024" version="1.1" xmlns="http://www.w3.org/2000/svg" p-id="1868" xmlns:xlink="http://www.w3.org/1999/xlink" width="200" height="200"><defs><style type="text/css"></style></defs><path d="M512 960C264.96 960 64 759.04 64 512S264.96 64 512 64s448 200.96 448 448-200.96 448-448 448z m0-832C300.256 128 128 300.256 128 512s172.256 384 384 384 384-172.256 384-384S723.744 128 512 128z" fill="#F46271" p-id="1869"></path><path d="M768 514.016H256a32 32 0 0 1 0-64h512a32 32 0 1 1 0 64z" fill="#F46271" p-id="1870"></path><path d="M480 381.984h64v100.032h-64zM320 482.016h64v96h-64zM640 482.016h64v96h-64z" fill="#F46271" p-id="1871"></path><path d="M608 578.016h128v128h-128z" fill="#FFEBF0" p-id="1872"></path><path d="M736 738.016h-128a32 32 0 0 1-32-32v-128a32 32 0 0 1 32-32h128a32 32 0 0 1 32 32v128a32 32 0 0 1-32 32z m-96-64h64v-64h-64v64z" fill="#F46271" p-id="1873"></path><path d="M288 578.016h128v128H288z" fill="#FFEBF0" p-id="1874"></path><path d="M416 738.016H288a32 32 0 0 1-32-32v-128a32 32 0 0 1 32-32h128a32 32 0 0 1 32 32v128a32 32 0 0 1-32 32z m-96-64h64v-64h-64v64z" fill="#F46271" p-id="1875"></path><path d="M448 253.984h128v128h-128z" fill="#FFEBF0" p-id="1876"></path><path d="M576 413.984h-128a32 32 0 0 1-32-32v-128a32 32 0 0 1 32-32h128a32 32 0 0 1 32 32v128a32 32 0 0 1-32 32z m-96-64h64v-64h-64v64z" fill="#F46271" p-id="1877"></path></svg>